<svg width="108" height="108" viewBox="0 0 108 108" fill="none" xmlns="http://www.w3.org/2000/svg">
    <circle cx="54" cy="54" r="54" fill="#D9D9D9"/>
    <g clip-path="url(#clip0_51_234)">
        <path d="M75.4499 69.235C74.4377 64.7728 72.0526 60.74 68.6299 57.7033C66.9231 59.9696 64.7131 61.8084 62.1743 63.0747C59.6354 64.3409 56.837 65.0001 53.9999 65.0001C51.1628 65.0001 48.3645 64.3409 45.8256 63.0747C43.2867 61.8084 41.0767 59.9696 39.3699 57.7033C35.9472 60.74 33.5622 64.7728 32.5499 69.235C32.367 70.0471 32.3675 70.8899 32.5514 71.7018C32.7354 72.5137 33.0981 73.2743 33.6132 73.9283C34.1292 74.5756 34.7846 75.098 35.5306 75.4567C36.2765 75.8154 37.0938 76.0011 37.9216 76H70.0783C70.906 76.0011 71.7233 75.8154 72.4693 75.4567C73.2153 75.098 73.8706 74.5756 74.3866 73.9283C74.9017 73.2743 75.2645 72.5137 75.4484 71.7018C75.6324 70.8899 75.6329 70.0471 75.4499 69.235Z"
              fill="#ACACAC"/>
        <path d="M53.9997 61.3333C62.0998 61.3333 68.6663 54.7668 68.6663 46.6667C68.6663 38.5665 62.0998 32 53.9997 32C45.8995 32 39.333 38.5665 39.333 46.6667C39.333 54.7668 45.8995 61.3333 53.9997 61.3333Z"
              fill="#ACACAC"/>
    </g>
    <defs>
        <clipPath id="clip0_51_234">
            <rect width="44" height="44" fill="white" transform="translate(32 32)"/>
        </clipPath>
    </defs>
</svg>
